<?xml version="1.0" encoding="utf-8"?>
<!-- Generator: Adobe Illustrator 26.0.3, SVG Export Plug-In . SVG Version: 6.00 Build 0)  -->
<svg version="1.1" xmlns="http://www.w3.org/2000/svg" xmlns:xlink="http://www.w3.org/1999/xlink" x="0px" y="0px"
	 height="60"
	 width="60"
	 viewBox="0 0 246 250" style="enable-background:new 0 0 246 250;" xml:space="preserve">
<style type="text/css">
	.st0{fill:#1E91CF;}
	.st1{fill:url(#SVGID_1_);}
	.st2{fill:url(#SVGID_00000053516775423637380050000003204269841631463328_);}
	.st3{fill:url(#SVGID_00000016788292232039576570000009650270257985055640_);}
	.st4{filter:url(#Adobe_OpacityMaskFilter);}
	.st5{filter:url(#Adobe_OpacityMaskFilter_00000152965451924856702710000006978465496398548895_);}
	
		.st6{mask:url(#SVGID_00000172429728062284258700000017527885525132709804_);fill:url(#SVGID_00000101092137546355639600000009095361140918015934_);}
	.st7{fill:url(#SVGID_00000081636917949623828060000010511424262342072464_);}
	.st8{fill:url(#SVGID_00000134929127920770919040000009629105873895239309_);}
	.st9{fill:url(#SVGID_00000119077670362983697750000010700234599094584479_);}
	.st10{fill:#FFFFFF;}
	.st11{fill:#CCCCCC;}
	.st12{fill:#3D3D3D;}
	.st13{fill:url(#SVGID_00000000931385825289392210000013658298307957224865_);}
	.st14{fill:url(#SVGID_00000021106235825922065990000015820408456485221552_);}
	.st15{fill:url(#SVGID_00000134250003147398673730000016418352436601161645_);}
	.st16{fill:url(#SVGID_00000168799730141998190740000003483683241324613050_);}
	.st17{fill:url(#SVGID_00000174581269973407329790000011555772899202242197_);}
	.st18{fill:url(#SVGID_00000107569738590528453640000008415066327123503536_);}
	.st19{fill:url(#SVGID_00000147203907441521522730000018015413554135383965_);}
	.st20{fill:url(#SVGID_00000122705874608773275630000005646864741445875331_);}
	.st21{fill:url(#SVGID_00000129927729002624155820000008927121503862429349_);}
	.st22{opacity:0.3;fill:#FFFFFF;}
	.st23{opacity:0.1;fill:#FFFFFF;}
	.st24{fill:#333333;}
</style>
<g id="_x31_1">
	<g>
		<path class="st0" d="M393.53,36.59c-15.58,6.45-82.37,34.12-100.83,41.66c-12.38,4.83-5.13,9.36-5.13,9.36s10.57,3.62,19.62,6.34
			c9.06,2.72,13.89-0.3,13.89-0.3l42.57-28.68c15.09-10.26,11.47-1.81,7.85,1.81c-7.85,7.85-20.83,20.22-31.7,30.19
			c-4.83,4.23-2.41,7.85-0.3,9.66c7.85,6.64,29.29,20.23,30.49,21.13c6.38,4.51,18.92,11.01,20.83-2.72l7.55-47.39
			c2.42-16,4.83-30.79,5.13-35.02C404.39,32.37,393.53,36.59,393.53,36.59z"/>
	</g>
	<g>
		
			<linearGradient id="SVGID_1_" gradientUnits="userSpaceOnUse" x1="174.9628" y1="504.3556" x2="295.8609" y2="504.3556" gradientTransform="matrix(0.8192 -0.5736 0.5736 0.8192 221.5775 -347.9852)">
			<stop  offset="0" style="stop-color:#006EAC"/>
			<stop  offset="1" style="stop-color:#41B4F2"/>
		</linearGradient>
		<path class="st1" d="M733.65-120.91c-15.28,6.33-80.82,33.48-98.93,40.87c-12.14,4.74-5.04,9.18-5.04,9.18s10.37,3.55,19.25,6.22
			c8.88,2.67,13.62-0.3,13.62-0.3l41.76-28.14c14.81-10.07,11.26-1.78,7.7,1.78c-7.7,7.7-20.44,19.84-31.1,29.62
			c-4.74,4.15-2.37,7.7-0.29,9.48c7.7,6.52,28.73,19.85,29.91,20.73c6.26,4.43,18.57,10.81,20.44-2.67l7.4-46.5
			c2.37-15.7,4.74-30.21,5.04-34.36C744.32-125.05,733.65-120.91,733.65-120.91z"/>
	</g>
	<g>
		<g>
			
				<linearGradient id="SVGID_00000087395218419770987070000017911766211998615177_" gradientUnits="userSpaceOnUse" x1="-102.9318" y1="310.2407" x2="15.6844" y2="310.2407" gradientTransform="matrix(0.8192 -0.5736 0.5736 0.8192 221.578 -347.9852)">
				<stop  offset="0" style="stop-color:#006EAC"/>
				<stop  offset="1" style="stop-color:#41B4F2"/>
			</linearGradient>
			<path style="fill:url(#SVGID_00000087395218419770987070000017911766211998615177_);" d="M393.16-118.91
				c-15,6.21-79.29,32.85-97.06,40.1c-11.92,4.65-4.94,9.01-4.94,9.01s10.17,3.49,18.89,6.1c8.72,2.62,13.37-0.29,13.37-0.29
				l40.97-27.61c14.53-9.88,11.04-1.75,7.56,1.74c-7.56,7.56-20.05,19.47-30.51,29.06c-4.65,4.07-2.32,7.55-0.29,9.3
				c7.56,6.39,28.19,19.47,29.35,20.34c6.14,4.35,18.21,10.6,20.05-2.62l7.26-45.62c2.33-15.4,4.65-29.64,4.94-33.71
				C403.62-122.97,393.16-118.91,393.16-118.91z"/>
			<path d="M383.29-24.95C383.29-24.95,383.29-24.95,383.29-24.95c-4.8,0-10.39-3.45-13.29-5.5c-0.25-0.19-1.54-1.03-3.16-2.09
				c-6.59-4.3-20.29-13.26-26.24-18.3c-1.01-0.87-2.7-2.68-2.71-5.09c-0.01-1.89,1-3.74,2.99-5.49
				c10.25-9.39,22.78-21.33,30.47-29.02c2.02-2.02,3.09-4.55,2.79-4.98c-0.01-0.01-0.11-0.05-0.31-0.05c-0.83,0-3.1,0.6-8.96,4.58
				l-40.98,27.61c-0.12,0.08-2.49,1.53-6.91,1.53c-2.26,0-4.67-0.38-7.17-1.13c-8.63-2.59-18.82-6.08-18.92-6.11
				c-0.06-0.02-0.12-0.05-0.17-0.08c-0.11-0.07-2.65-1.68-2.41-4.21c0.22-2.36,2.67-4.42,7.49-6.3c11.47-4.68,43.69-18,95.76-39.57
				l1.28-0.53c0.11-0.04,2.32-0.89,4.71-0.89c2,0,3.54,0.58,4.59,1.73c1.19,1.29,1.67,3.25,1.44,5.83
				c-0.21,2.96-1.47,11.12-3.06,21.45c-0.6,3.89-1.24,8.06-1.89,12.32l-7.27,45.63C390.38-26.46,386.43-24.95,383.29-24.95z
				 M373.82-97.16c1.24,0,1.71,0.69,1.88,1.1c0.81,1.95-1.78,5.43-3.16,6.81c-7.71,7.71-20.26,19.67-30.54,29.08
				c-1.63,1.42-2.44,2.84-2.43,4.22c0.01,1.74,1.33,3.14,2.12,3.82c5.87,4.96,20.03,14.22,26.07,18.17c2,1.31,2.97,1.94,3.23,2.14
				c2.72,1.92,7.96,5.18,12.29,5.18h0c3.64,0,5.74-2.37,6.42-7.24l7.27-45.64c0.64-4.25,1.29-8.42,1.89-12.31
				c1.59-10.29,2.84-18.41,3.05-21.32c0.19-2.1-0.15-3.62-1.01-4.56c-0.72-0.79-1.85-1.19-3.35-1.19c-2.08,0-4.07,0.76-4.09,0.77
				l-1.26,0.52c-52.08,21.57-84.3,34.88-95.78,39.57c-5.39,2.1-6.35,3.97-6.44,4.89c-0.13,1.31,1.23,2.35,1.56,2.58
				c1.1,0.38,10.62,3.62,18.75,6.06c2.34,0.7,4.58,1.06,6.68,1.06c3.9,0,5.98-1.24,6-1.26l40.94-27.59
				C368.74-95.56,371.98-97.16,373.82-97.16z"/>
		</g>
	</g>
	<g>
		<g>
			<path d="M548.99,134.08C548.99,134.08,548.99,134.08,548.99,134.08c-5.04,0-10.85-3.59-13.87-5.73
				c-0.26-0.19-1.59-1.06-3.27-2.16c-6.79-4.44-20.93-13.67-27.07-18.87c-1.87-1.6-2.9-3.54-2.91-5.48
				c-0.01-2.04,1.06-4.02,3.19-5.89c10.58-9.7,23.5-22.01,31.4-29.91c1.78-1.78,2.82-3.94,2.83-4.67c-0.55-0.03-2.72,0.31-9.13,4.67
				l-42.25,28.46c-0.14,0.09-2.65,1.63-7.3,1.63c-2.36,0-4.88-0.4-7.47-1.17c-8.91-2.67-19.41-6.27-19.52-6.31
				c-0.08-0.03-0.17-0.07-0.24-0.11c-0.12-0.07-2.89-1.84-2.63-4.62c0.24-2.56,2.83-4.77,7.91-6.75
				c11.91-4.86,45.26-18.64,99.11-40.95l0.93-0.39c0.12-0.05,2.46-0.94,4.98-0.94c2.15,0,3.82,0.63,4.96,1.88
				c1.28,1.4,1.81,3.5,1.57,6.24c-0.22,3.06-1.52,11.49-3.16,22.15c-0.62,4-1.28,8.29-1.94,12.67l-7.49,47.05
				C556.57,132.48,552.35,134.08,548.99,134.08z M539.23,59.04c1.5,0,2.05,0.93,2.22,1.32c0.86,2.07-1.58,5.6-3.33,7.35
				c-7.92,7.92-20.87,20.26-31.49,30c-1.61,1.41-2.42,2.79-2.41,4.13c0.01,1.68,1.31,3.04,2.08,3.7c6.03,5.1,20.61,14.63,26.83,18.7
				c2.13,1.39,3.09,2.02,3.37,2.23c2.22,1.57,7.94,5.28,12.49,5.28c0,0,0,0,0,0c3.58,0,5.64-2.35,6.31-7.2l7.49-47.06
				c0.66-4.37,1.32-8.67,1.94-12.67c1.57-10.19,2.93-18.99,3.14-21.98c0.18-2.08-0.14-3.58-0.96-4.47
				c-0.68-0.75-1.77-1.12-3.23-1.12c-2.07,0-4.09,0.77-4.11,0.78l-0.91,0.38c-53.86,22.31-87.21,36.09-99.14,40.96
				c-5.42,2.12-6.37,3.91-6.45,4.79c-0.11,1.14,1.1,2.1,1.44,2.35c1.32,0.45,11,3.74,19.28,6.23c2.38,0.71,4.67,1.08,6.8,1.08
				c3.92,0,6.01-1.24,6.03-1.25l42.2-28.43C533.86,60.7,537.26,59.04,539.23,59.04z"/>
		</g>
	</g>
	<g>
		<g>
			<path class="st0" d="M882.31,134.52C882.31,134.52,882.31,134.52,882.31,134.52c-5.03,0-10.85-3.59-13.87-5.73
				c-0.26-0.19-1.58-1.05-3.25-2.14c-6.8-4.44-20.94-13.68-27.09-18.89c-1.87-1.6-2.9-3.54-2.91-5.48
				c-0.01-2.04,1.06-4.02,3.19-5.89c10.56-9.68,23.48-21.99,31.4-29.91c1.78-1.78,2.82-3.94,2.83-4.67
				c-0.55-0.03-2.72,0.31-9.13,4.67l-42.24,28.46c-0.14,0.09-2.65,1.62-7.3,1.62c-2.36,0-4.88-0.4-7.47-1.18
				c-8.91-2.67-19.41-6.27-19.52-6.3c-0.09-0.03-0.16-0.07-0.24-0.11c-0.12-0.07-2.89-1.84-2.62-4.62c0.24-2.56,2.83-4.77,7.91-6.75
				c11.88-4.85,47.41-19.54,100.04-41.33c0.12-0.05,2.46-0.94,4.98-0.94c2.15,0,3.81,0.63,4.96,1.88c1.28,1.4,1.81,3.5,1.57,6.24
				c-0.22,3.07-1.52,11.51-3.17,22.2c-0.61,3.99-1.27,8.26-1.93,12.62l-7.49,47.04C889.88,132.92,885.66,134.52,882.31,134.52z
				 M872.55,59.48c1.5,0,2.05,0.93,2.21,1.32c0.86,2.07-1.58,5.61-3.32,7.35c-7.94,7.94-20.89,20.27-31.49,29.99
				c-1.61,1.41-2.42,2.79-2.41,4.13c0.01,1.68,1.31,3.04,2.08,3.71c6.03,5.11,20.62,14.64,26.85,18.71c2.12,1.38,3.06,2,3.34,2.21
				c2.22,1.57,7.95,5.28,12.49,5.28c3.58,0,5.64-2.35,6.31-7.2l7.49-47.06c0.66-4.35,1.32-8.63,1.93-12.62
				c1.58-10.22,2.94-19.04,3.15-22.03c0.18-2.08-0.14-3.58-0.96-4.47c-0.68-0.75-1.77-1.12-3.23-1.12c-2.07,0-4.08,0.77-4.1,0.78
				c-52.6,21.79-88.14,36.47-100.04,41.34c-5.42,2.12-6.37,3.91-6.45,4.79c-0.11,1.14,1.1,2.1,1.44,2.35
				c1.32,0.45,11,3.74,19.28,6.23c2.38,0.71,4.67,1.08,6.8,1.08c3.92,0,6.01-1.24,6.03-1.25l42.2-28.43
				C867.18,61.14,870.58,59.48,872.55,59.48z"/>
		</g>
	</g>
	<g>
		<g>
			
				<linearGradient id="SVGID_00000067956459662716484890000012674890785713756565_" gradientUnits="userSpaceOnUse" x1="627.1895" y1="85" x2="747.1895" y2="85">
				<stop  offset="0" style="stop-color:#006EAC"/>
				<stop  offset="1" style="stop-color:#41B4F2"/>
			</linearGradient>
			<path style="fill:url(#SVGID_00000067956459662716484890000012674890785713756565_);" d="M627.19,112.19
				c0,18.12,14.69,32.81,32.81,32.81h54.38c18.12,0,32.81-14.69,32.81-32.81V57.81c0-18.12-14.69-32.81-32.81-32.81H660
				c-18.12,0-32.81,14.69-32.81,32.81V112.19z"/>
		</g>
		<g>
			<g>
				<defs>
					<filter id="Adobe_OpacityMaskFilter" filterUnits="userSpaceOnUse" x="646.53" y="46.99" width="93.45" height="93.45">
						<feFlood  style="flood-color:white;flood-opacity:1" result="back"/>
						<feBlend  in="SourceGraphic" in2="back" mode="normal"/>
					</filter>
				</defs>
				
					<mask maskUnits="userSpaceOnUse" x="646.53" y="46.99" width="93.45" height="93.45" id="SVGID_00000039128780181562200180000001573035312682163092_">
					<g class="st4">
						<defs>
							
								<filter id="Adobe_OpacityMaskFilter_00000011022918851892592270000011325139713836173697_" filterUnits="userSpaceOnUse" x="646.53" y="46.99" width="93.45" height="93.45">
								<feFlood  style="flood-color:white;flood-opacity:1" result="back"/>
								<feBlend  in="SourceGraphic" in2="back" mode="normal"/>
							</filter>
						</defs>
						
							<mask maskUnits="userSpaceOnUse" x="646.53" y="46.99" width="93.45" height="93.45" id="SVGID_00000039128780181562200180000001573035312682163092_">
							<g style="filter:url(#Adobe_OpacityMaskFilter_00000011022918851892592270000011325139713836173697_);">
							</g>
						</mask>
						
							<radialGradient id="SVGID_00000106132151314586330840000015733219430340457601_" cx="695.7356" cy="95.108" r="46.0948" gradientTransform="matrix(1.0137 0 0 1.0137 -12.0098 -2.6912)" gradientUnits="userSpaceOnUse">
							<stop  offset="0.4311" style="stop-color:#FFFFFF"/>
							<stop  offset="0.5333" style="stop-color:#FCFCFC"/>
							<stop  offset="0.6086" style="stop-color:#F3F3F3"/>
							<stop  offset="0.6754" style="stop-color:#E3E3E3"/>
							<stop  offset="0.7372" style="stop-color:#CCCCCC"/>
							<stop  offset="0.7955" style="stop-color:#AFAFAF"/>
							<stop  offset="0.8513" style="stop-color:#8B8B8B"/>
							<stop  offset="0.9051" style="stop-color:#606060"/>
							<stop  offset="0.9559" style="stop-color:#303030"/>
							<stop  offset="1" style="stop-color:#000000"/>
						</radialGradient>
						
							<path style="mask:url(#SVGID_00000039128780181562200180000001573035312682163092_);fill:url(#SVGID_00000106132151314586330840000015733219430340457601_);" d="
							M646.53,93.72c0,25.81,20.92,46.73,46.73,46.73c25.8,0,46.73-20.92,46.73-46.73c0-25.81-20.92-46.73-46.73-46.73
							C667.45,46.99,646.53,67.91,646.53,93.72z"/>
					</g>
				</mask>
				
					<radialGradient id="SVGID_00000066489336298512811450000010242865543381619841_" cx="695.7356" cy="95.108" r="46.0948" gradientTransform="matrix(1.0137 0 0 1.0137 -12.0098 -2.6912)" gradientUnits="userSpaceOnUse">
					<stop  offset="0.4311" style="stop-color:#000000"/>
					<stop  offset="0.5333" style="stop-color:#030303"/>
					<stop  offset="0.6086" style="stop-color:#0C0C0C"/>
					<stop  offset="0.6754" style="stop-color:#1C1C1C"/>
					<stop  offset="0.7372" style="stop-color:#333333"/>
					<stop  offset="0.7955" style="stop-color:#505050"/>
					<stop  offset="0.8513" style="stop-color:#747474"/>
					<stop  offset="0.9051" style="stop-color:#9F9F9F"/>
					<stop  offset="0.9559" style="stop-color:#CFCFCF"/>
					<stop  offset="1" style="stop-color:#FFFFFF"/>
				</radialGradient>
				<path style="fill:url(#SVGID_00000066489336298512811450000010242865543381619841_);" d="M646.53,93.72
					c0,25.81,20.92,46.73,46.73,46.73c25.8,0,46.73-20.92,46.73-46.73c0-25.81-20.92-46.73-46.73-46.73
					C667.45,46.99,646.53,67.91,646.53,93.72z"/>
			</g>
			<g>
				
					<linearGradient id="SVGID_00000056428566403462605200000004644688298684117657_" gradientUnits="userSpaceOnUse" x1="661.6322" y1="51.8715" x2="718.4948" y2="124.8044">
					<stop  offset="0" style="stop-color:#FFFFFF"/>
					<stop  offset="0.44" style="stop-color:#DDE7F1"/>
					<stop  offset="0.5992" style="stop-color:#DBE4EF"/>
					<stop  offset="0.7016" style="stop-color:#D3DCEA"/>
					<stop  offset="0.7881" style="stop-color:#C6CDE0"/>
					<stop  offset="0.8657" style="stop-color:#B3B8D2"/>
					<stop  offset="0.9367" style="stop-color:#9C9DC1"/>
					<stop  offset="1" style="stop-color:#807EAD"/>
				</linearGradient>
				<path style="fill:url(#SVGID_00000056428566403462605200000004644688298684117657_);" d="M640.62,84.85
					c0,25.81,20.92,46.73,46.72,46.73c25.81,0,46.73-20.92,46.73-46.73c0-25.81-20.92-46.73-46.73-46.73
					C661.54,38.13,640.62,59.05,640.62,84.85z"/>
			</g>
		</g>
		<g>
			
				<linearGradient id="SVGID_00000049904426451010275200000007884975660723562678_" gradientUnits="userSpaceOnUse" x1="106.6665" y1="629.2436" x2="174.0672" y2="629.2436" gradientTransform="matrix(0.8192 -0.5736 0.5736 0.8192 221.5775 -347.9852)">
				<stop  offset="0" style="stop-color:#006EAC"/>
				<stop  offset="1" style="stop-color:#41B4F2"/>
			</linearGradient>
			<path style="fill:url(#SVGID_00000049904426451010275200000007884975660723562678_);" d="M714.18,58.51
				c-8.52,3.53-45.06,18.66-55.15,22.79c-6.77,2.64-2.8,5.12-2.8,5.12s5.78,1.98,10.73,3.47c4.95,1.49,7.6-0.17,7.6-0.17
				l23.28-15.69c8.26-5.61,6.28-0.99,4.29,0.99c-4.29,4.29-11.39,11.06-17.34,16.51c-2.64,2.31-1.32,4.29-0.16,5.29
				c4.29,3.63,16.02,11.06,16.68,11.56c3.49,2.47,10.35,6.03,11.39-1.49l4.13-25.92c1.32-8.75,2.64-16.84,2.81-19.16
				C720.13,56.2,714.18,58.51,714.18,58.51z"/>
		</g>
	</g>
	<g>
		<path d="M783.34-73.59c0,32.81,26.6,59.41,59.41,59.41c32.81,0,59.41-26.6,59.41-59.41c0-32.81-26.6-59.41-59.41-59.41
			C809.94-133,783.34-106.4,783.34-73.59z"/>
		<g>
			<path class="st10" d="M873.84-103.98c-9.74,4.03-51.5,21.33-63.03,26.05c-7.74,3.02-3.21,5.85-3.21,5.85s6.61,2.27,12.27,3.96
				c5.66,1.7,8.68-0.19,8.68-0.19l26.61-17.93c9.44-6.42,7.17-1.13,4.91,1.13c-4.91,4.91-13.02,12.64-19.82,18.87
				c-3.02,2.64-1.51,4.91-0.19,6.04c4.91,4.15,18.31,12.64,19.06,13.21c3.99,2.82,11.83,6.88,13.02-1.7l4.72-29.63
				c1.51-10,3.02-19.25,3.21-21.89C880.64-106.62,873.84-103.98,873.84-103.98z"/>
		</g>
	</g>
	<g>
		<g>
			<path class="st11" d="M1041.99,286.72c0,14.07-11.51,25.59-25.59,25.59H867.82c-14.07,0-25.59-11.51-25.59-25.59
				s11.51-25.59,25.59-25.59h148.58C1030.48,261.13,1041.99,272.65,1041.99,286.72z"/>
			<g>
				<path class="st10" d="M1041.99,282.72c0,14.07-11.51,25.59-25.59,25.59H867.82c-14.07,0-25.59-11.51-25.59-25.59
					s11.51-25.59,25.59-25.59h148.58C1030.48,257.13,1041.99,268.65,1041.99,282.72z"/>
				<path class="st11" d="M1016.41,308.39H867.82c-14.16,0-25.67-11.52-25.67-25.67s11.52-25.67,25.67-25.67h148.58
					c14.16,0,25.67,11.52,25.67,25.67S1030.56,308.39,1016.41,308.39z M867.82,257.22c-14.06,0-25.5,11.44-25.5,25.5
					s11.44,25.5,25.5,25.5h148.58c14.06,0,25.5-11.44,25.5-25.5s-11.44-25.5-25.5-25.5H867.82z"/>
			</g>
			<g>
				<path class="st12" d="M903.1,272.26c-0.53,0.29-1.09,0.39-1.7,0.39c-1.68,0-2.97-1.17-2.97-3.04c0-2.01,1.38-3.74,3.55-3.74
					c1.71,0,2.84,1.19,2.84,2.82c0,1.46-0.82,2.32-1.73,2.32c-0.39,0-0.74-0.26-0.72-0.86h-0.03c-0.35,0.57-0.8,0.86-1.38,0.86
					c-0.57,0-1.05-0.46-1.05-1.23c0-1.21,0.96-2.31,2.31-2.31c0.42,0,0.8,0.09,1.05,0.2l-0.33,1.76c-0.15,0.74-0.04,1.08,0.29,1.09
					c0.5,0.01,1.05-0.65,1.05-1.78c0-1.41-0.85-2.43-2.37-2.43c-1.59,0-2.92,1.26-2.92,3.24c0,1.63,1.02,2.63,2.54,2.63
					c0.5,0,1.04-0.12,1.43-0.35L903.1,272.26z M902.58,268.06c-0.11-0.03-0.26-0.07-0.49-0.07c-0.86,0-1.56,0.81-1.56,1.75
					c0,0.43,0.23,0.74,0.64,0.74c0.56,0,1.08-0.72,1.19-1.33L902.58,268.06z"/>
				<path class="st12" d="M909.97,266.93l-0.63,3.34c-0.1,0.53-0.16,0.98-0.21,1.37h-0.73l0.13-0.89h-0.02
					c-0.42,0.61-1.04,0.99-1.66,0.99c-0.6,0-1.24-0.29-1.24-1.36c0-0.22,0.03-0.48,0.09-0.79l0.51-2.67H907l-0.5,2.63
					c-0.06,0.26-0.09,0.49-0.09,0.69c0,0.49,0.21,0.82,0.76,0.82c0.59,0,1.34-0.68,1.53-1.72l0.46-2.42H909.97z"/>
				<path class="st12" d="M910.54,270.82c0.22,0.14,0.63,0.29,1.01,0.29c0.54,0,0.9-0.35,0.9-0.77c0-0.37-0.17-0.59-0.65-0.87
					c-0.55-0.3-0.85-0.72-0.85-1.2c0-0.83,0.71-1.46,1.71-1.46c0.43,0,0.81,0.12,0.98,0.23l-0.22,0.61
					c-0.16-0.1-0.47-0.21-0.82-0.21c-0.49,0-0.84,0.3-0.84,0.71c0,0.34,0.22,0.55,0.64,0.79c0.53,0.3,0.89,0.71,0.89,1.24
					c0,1-0.81,1.55-1.8,1.55c-0.51,0-0.96-0.16-1.17-0.32L910.54,270.82z"/>
				<path class="st12" d="M917.53,271.37c-0.35,0.2-0.93,0.37-1.56,0.37c-1.25,0-1.79-0.85-1.79-1.89c0-1.42,1.05-3.03,2.57-3.03
					c0.9,0,1.38,0.54,1.38,1.21c0,1.24-1.39,1.57-3.14,1.54c-0.04,0.21-0.01,0.64,0.1,0.9c0.18,0.42,0.56,0.63,1.05,0.63
					c0.55,0,0.98-0.18,1.27-0.33L917.53,271.37z M916.63,267.45c-0.77,0-1.35,0.75-1.54,1.49c1.27,0.01,2.26-0.16,2.26-0.89
					C917.35,267.67,917.06,267.45,916.63,267.45z"/>
				<path class="st12" d="M918.54,271.64l0.58-3.04c0.12-0.61,0.19-1.24,0.24-1.68h0.71c-0.04,0.33-0.08,0.66-0.13,1.02h0.03
					c0.3-0.64,0.81-1.13,1.44-1.13c0.07,0,0.17,0.01,0.23,0.02l-0.16,0.8c-0.05-0.01-0.13-0.02-0.21-0.02
					c-0.7,0-1.33,0.85-1.53,1.95l-0.39,2.08H918.54z"/>
				<path class="st12" d="M921.64,271.64l0.63-3.34c0.11-0.53,0.17-0.98,0.22-1.37h0.72l-0.12,0.92h0.02
					c0.42-0.66,1.05-1.03,1.74-1.03c0.56,0,1.2,0.32,1.2,1.31c0,0.21-0.04,0.51-0.09,0.76l-0.53,2.75h-0.81l0.52-2.72
					c0.04-0.19,0.07-0.41,0.07-0.6c0-0.48-0.18-0.83-0.74-0.83c-0.58,0-1.39,0.69-1.61,1.86l-0.43,2.29H921.64z"/>
				<path class="st12" d="M929.97,271.64c0-0.28,0.05-0.73,0.11-1.22h-0.02c-0.52,0.97-1.16,1.32-1.83,1.32
					c-0.83,0-1.35-0.66-1.35-1.56c0-1.64,1.21-3.37,3.26-3.37c0.45,0,0.94,0.08,1.27,0.18l-0.48,2.46
					c-0.16,0.82-0.22,1.66-0.21,2.18H929.97z M930.49,267.53c-0.12-0.03-0.29-0.07-0.57-0.07c-1.22,0-2.21,1.27-2.22,2.58
					c0,0.53,0.19,1.04,0.81,1.04c0.67,0,1.47-0.88,1.71-2.13L930.49,267.53z"/>
				<path class="st12" d="M931.92,271.64l0.63-3.34c0.1-0.53,0.17-0.98,0.21-1.37h0.71l-0.13,0.89h0.03
					c0.44-0.66,1.03-0.99,1.66-0.99c0.72,0,1.06,0.46,1.1,1.05c0.42-0.68,1.02-1.04,1.74-1.05c0.54,0,1.14,0.35,1.14,1.24
					c0,0.22-0.03,0.54-0.08,0.8l-0.53,2.79h-0.79l0.51-2.72c0.04-0.18,0.07-0.42,0.07-0.61c0-0.5-0.19-0.82-0.71-0.82
					c-0.58,0-1.28,0.68-1.47,1.73l-0.46,2.42h-0.78l0.53-2.77c0.04-0.21,0.06-0.39,0.06-0.57c0-0.4-0.11-0.81-0.7-0.81
					c-0.59,0-1.33,0.78-1.51,1.78l-0.44,2.37H931.92z"/>
				<path class="st12" d="M943.19,271.37c-0.35,0.2-0.92,0.37-1.56,0.37c-1.25,0-1.79-0.85-1.79-1.89c0-1.42,1.05-3.03,2.57-3.03
					c0.9,0,1.38,0.54,1.38,1.21c0,1.24-1.39,1.57-3.14,1.54c-0.04,0.21-0.01,0.64,0.1,0.9c0.18,0.42,0.57,0.63,1.05,0.63
					c0.56,0,0.97-0.18,1.27-0.33L943.19,271.37z M942.3,267.45c-0.77,0-1.34,0.75-1.54,1.49c1.27,0.01,2.26-0.16,2.26-0.89
					C943.02,267.67,942.73,267.45,942.3,267.45z"/>
			</g>
			<g>
				<path d="M900.08,288.27l0.66-3.47l-1.61-4.89h1.1l0.81,2.7c0.21,0.74,0.29,1.08,0.35,1.4h0.03c0.21-0.35,0.5-0.82,0.89-1.44
					l1.81-2.67h1.2l-3.56,4.87l-0.66,3.48H900.08z"/>
				<path d="M909.74,284.63c0,1.85-1.31,3.77-3.32,3.77c-1.5,0-2.34-1.12-2.34-2.47c0-1.97,1.38-3.8,3.32-3.8
					C909.02,282.13,909.74,283.36,909.74,284.63z M905.14,285.9c0,0.98,0.53,1.69,1.41,1.69c1.21,0,2.13-1.56,2.13-2.96
					c0-0.69-0.32-1.67-1.4-1.67C905.99,282.95,905.13,284.52,905.14,285.9z"/>
				<path d="M916.31,282.27l-0.8,4.25c-0.12,0.67-0.21,1.25-0.27,1.75h-0.93l0.16-1.13h-0.02c-0.53,0.78-1.33,1.26-2.12,1.26
					c-0.77,0-1.58-0.37-1.58-1.74c0-0.28,0.04-0.61,0.11-1l0.65-3.4h1.03l-0.63,3.34c-0.08,0.34-0.11,0.62-0.11,0.88
					c0,0.62,0.26,1.04,0.97,1.04c0.74,0,1.7-0.87,1.95-2.2l0.58-3.07H916.31z"/>
				<path d="M916.98,288.27l0.73-3.87c0.15-0.78,0.25-1.57,0.31-2.13h0.9c-0.05,0.42-0.1,0.84-0.16,1.3h0.04
					c0.38-0.82,1.03-1.44,1.84-1.44c0.09,0,0.21,0.01,0.28,0.02l-0.2,1.01c-0.06-0.01-0.16-0.02-0.27-0.02
					c-0.89,0-1.69,1.08-1.95,2.48l-0.5,2.64H916.98z"/>
				<path d="M925.87,280.65l-0.31,1.61h1.44l-0.16,0.8h-1.44l-0.56,2.92c-0.06,0.33-0.11,0.64-0.11,0.97c0,0.36,0.17,0.57,0.57,0.57
					c0.17,0,0.35-0.01,0.48-0.04l-0.05,0.8c-0.19,0.08-0.5,0.11-0.79,0.11c-0.92,0-1.26-0.56-1.26-1.16c0-0.35,0.04-0.7,0.12-1.13
					l0.59-3.04h-0.87l0.16-0.8h0.85l0.26-1.35L925.87,280.65z"/>
				<path d="M931.33,287.92c-0.45,0.26-1.18,0.47-1.98,0.47c-1.59,0-2.28-1.08-2.28-2.4c0-1.81,1.34-3.86,3.27-3.86
					c1.14,0,1.76,0.68,1.76,1.54c0,1.57-1.77,1.99-3.99,1.96c-0.05,0.26-0.01,0.82,0.12,1.14c0.24,0.53,0.72,0.81,1.34,0.81
					c0.71,0,1.24-0.22,1.61-0.42L931.33,287.92z M930.19,282.94c-0.98,0-1.71,0.95-1.96,1.9c1.61,0.01,2.88-0.2,2.88-1.13
					C931.11,283.21,930.74,282.94,930.19,282.94z"/>
				<path d="M934.17,282.27l0.58,1.31c0.16,0.38,0.28,0.68,0.4,0.95h0.04c0.24-0.34,0.36-0.53,0.66-0.91l1.1-1.36h1.19l-2.53,2.93
					l1.41,3.07h-1.12l-0.61-1.35c-0.2-0.45-0.28-0.68-0.43-1.06h-0.02c-0.19,0.28-0.36,0.55-0.62,0.91l-1.22,1.5h-1.19l2.63-3.09
					l-1.39-2.91H934.17z"/>
				<path d="M940.9,280.65l-0.31,1.61h1.44l-0.16,0.8h-1.44l-0.56,2.92c-0.06,0.33-0.11,0.64-0.11,0.97c0,0.36,0.17,0.57,0.57,0.57
					c0.17,0,0.35-0.01,0.48-0.04l-0.05,0.8c-0.19,0.08-0.5,0.11-0.79,0.11c-0.92,0-1.26-0.56-1.26-1.16c0-0.35,0.04-0.7,0.12-1.13
					l0.59-3.04h-0.87l0.16-0.8h0.85l0.26-1.35L940.9,280.65z"/>
				<path d="M944.35,288.27l0.81-4.25c0.12-0.67,0.21-1.25,0.27-1.75h0.91l-0.16,1.13h0.04c0.56-0.83,1.31-1.26,2.11-1.26
					c0.92,0,1.35,0.58,1.4,1.34c0.53-0.87,1.3-1.33,2.21-1.34c0.69,0,1.45,0.44,1.45,1.57c0,0.28-0.04,0.68-0.1,1.01l-0.67,3.55h-1
					l0.65-3.46c0.05-0.22,0.09-0.53,0.09-0.78c0-0.63-0.24-1.04-0.9-1.04c-0.75,0-1.62,0.87-1.87,2.21l-0.58,3.07h-0.99l0.67-3.52
					c0.05-0.26,0.08-0.5,0.08-0.73c0-0.51-0.14-1.03-0.89-1.03c-0.76,0-1.69,0.99-1.92,2.27l-0.56,3.01H944.35z"/>
				<path d="M958.7,287.92c-0.45,0.26-1.18,0.47-1.98,0.47c-1.59,0-2.28-1.08-2.28-2.4c0-1.81,1.34-3.86,3.27-3.86
					c1.14,0,1.76,0.68,1.76,1.54c0,1.57-1.77,1.99-3.99,1.96c-0.05,0.26-0.01,0.82,0.12,1.14c0.24,0.53,0.72,0.81,1.34,0.81
					c0.71,0,1.24-0.22,1.61-0.42L958.7,287.92z M957.55,282.94c-0.98,0-1.71,0.95-1.96,1.9c1.61,0.01,2.88-0.2,2.88-1.13
					C958.47,283.21,958.1,282.94,957.55,282.94z"/>
				<path d="M960.03,287.22c0.28,0.18,0.8,0.37,1.29,0.37c0.69,0,1.14-0.45,1.14-0.98c0-0.47-0.21-0.76-0.83-1.1
					c-0.69-0.38-1.08-0.92-1.08-1.52c0-1.05,0.91-1.86,2.17-1.86c0.55,0,1.03,0.15,1.25,0.3l-0.28,0.78
					c-0.21-0.12-0.59-0.27-1.04-0.27c-0.62,0-1.07,0.38-1.07,0.91c0,0.43,0.28,0.71,0.82,1c0.67,0.38,1.13,0.9,1.13,1.57
					c0,1.26-1.03,1.97-2.29,1.97c-0.64,0-1.21-0.2-1.49-0.41L960.03,287.22z"/>
				<path d="M964.66,287.22c0.29,0.18,0.81,0.37,1.29,0.37c0.7,0,1.14-0.45,1.14-0.98c0-0.47-0.21-0.76-0.83-1.1
					c-0.69-0.38-1.08-0.92-1.08-1.52c0-1.05,0.91-1.86,2.17-1.86c0.55,0,1.03,0.15,1.25,0.3l-0.29,0.78
					c-0.21-0.12-0.59-0.27-1.04-0.27c-0.62,0-1.07,0.38-1.07,0.91c0,0.43,0.29,0.71,0.82,1c0.67,0.38,1.13,0.9,1.13,1.57
					c0,1.26-1.03,1.97-2.29,1.97c-0.65,0-1.21-0.2-1.49-0.41L964.66,287.22z"/>
				<path d="M973.21,288.27c0-0.36,0.06-0.93,0.14-1.55h-0.03c-0.66,1.24-1.47,1.69-2.33,1.69c-1.05,0-1.72-0.84-1.72-1.98
					c0-2.08,1.54-4.29,4.15-4.29c0.57,0,1.2,0.1,1.61,0.23l-0.61,3.12c-0.2,1.04-0.28,2.11-0.26,2.78H973.21z M973.88,283.03
					c-0.15-0.04-0.37-0.09-0.72-0.09c-1.55,0-2.81,1.62-2.83,3.28c0,0.67,0.23,1.33,1.03,1.33c0.86,0,1.87-1.11,2.17-2.71
					L973.88,283.03z"/>
				<path d="M975.77,289.63c0.36,0.22,0.95,0.4,1.59,0.4c1,0,1.8-0.52,2.16-2.14l0.2-0.89h-0.04c-0.52,0.86-1.25,1.28-2.08,1.28
					c-1.2,0-1.82-1.02-1.82-2.08c-0.01-2.03,1.49-4.05,3.81-4.05c0.69,0,1.45,0.2,1.92,0.42l-0.92,4.96
					c-0.25,1.26-0.58,2.14-1.21,2.68c-0.59,0.52-1.4,0.67-2.09,0.67c-0.73,0-1.41-0.17-1.8-0.42L975.77,289.63z M980.36,283.16
					c-0.19-0.09-0.56-0.2-0.99-0.2c-1.5,0-2.53,1.56-2.54,3.05c0,0.66,0.24,1.44,1.15,1.44c0.88,0,1.77-1.12,1.99-2.29
					L980.36,283.16z"/>
				<path d="M986.53,287.92c-0.45,0.26-1.18,0.47-1.98,0.47c-1.59,0-2.28-1.08-2.28-2.4c0-1.81,1.34-3.86,3.27-3.86
					c1.14,0,1.76,0.68,1.76,1.54c0,1.57-1.77,1.99-3.99,1.96c-0.05,0.26-0.01,0.82,0.12,1.14c0.24,0.53,0.72,0.81,1.34,0.81
					c0.71,0,1.24-0.22,1.61-0.42L986.53,287.92z M985.38,282.94c-0.98,0-1.71,0.95-1.96,1.9c1.61,0.01,2.88-0.2,2.88-1.13
					C986.3,283.21,985.93,282.94,985.38,282.94z"/>
				<path d="M990.07,288.27l1.67-8.8h1.03l-0.74,3.87h0.02c0.51-0.73,1.24-1.2,2.14-1.2c0.68,0,1.49,0.42,1.49,1.61
					c0,0.32-0.04,0.71-0.1,1.01l-0.67,3.51h-1.03l0.67-3.46c0.04-0.22,0.08-0.5,0.08-0.83c0-0.56-0.26-0.99-0.93-0.99
					c-0.79,0-1.8,0.93-2.04,2.28l-0.56,3H990.07z"/>
				<path d="M1001.02,287.92c-0.45,0.26-1.18,0.47-1.98,0.47c-1.59,0-2.28-1.08-2.28-2.4c0-1.81,1.34-3.86,3.27-3.86
					c1.14,0,1.76,0.68,1.76,1.54c0,1.57-1.77,1.99-3.99,1.96c-0.05,0.26-0.01,0.82,0.12,1.14c0.24,0.53,0.72,0.81,1.34,0.81
					c0.71,0,1.24-0.22,1.61-0.42L1001.02,287.92z M999.88,282.94c-0.98,0-1.71,0.95-1.96,1.9c1.61,0.01,2.88-0.2,2.88-1.13
					C1000.79,283.21,1000.42,282.94,999.88,282.94z"/>
				<path d="M1002.31,288.27l0.73-3.87c0.15-0.78,0.25-1.57,0.31-2.13h0.9c-0.05,0.42-0.1,0.84-0.16,1.3h0.04
					c0.38-0.82,1.03-1.44,1.83-1.44c0.09,0,0.21,0.01,0.29,0.02l-0.2,1.01c-0.06-0.01-0.16-0.02-0.27-0.02
					c-0.89,0-1.68,1.08-1.95,2.48l-0.5,2.64H1002.31z"/>
				<path d="M1010.5,287.92c-0.45,0.26-1.18,0.47-1.98,0.47c-1.59,0-2.28-1.08-2.28-2.4c0-1.81,1.34-3.86,3.27-3.86
					c1.14,0,1.76,0.68,1.76,1.54c0,1.57-1.77,1.99-3.99,1.96c-0.05,0.26-0.01,0.82,0.12,1.14c0.23,0.53,0.72,0.81,1.34,0.81
					c0.71,0,1.24-0.22,1.61-0.42L1010.5,287.92z M1009.36,282.94c-0.98,0-1.71,0.95-1.96,1.9c1.61,0.01,2.88-0.2,2.88-1.13
					C1010.28,283.21,1009.91,282.94,1009.36,282.94z"/>
			</g>
		</g>
		<g>
			<path class="st11" d="M1038.6,237.28c0,4.77-3.9,8.67-8.67,8.67H816.47c-17.95,0-32.63-14.68-32.63-32.63
				s14.68-32.63,32.63-32.63h213.45c4.77,0,8.67,3.9,8.67,8.67V237.28z"/>
			<g>
				<path class="st10" d="M1038.6,232.17c0,4.77-3.9,8.67-8.67,8.67H816.48c-17.95,0-32.63-14.68-32.63-32.63
					c0-17.95,14.68-32.63,32.63-32.63h213.45c4.77,0,8.67,3.9,8.67,8.67V232.17z"/>
				<path class="st11" d="M1029.92,240.93H816.48c-8.7,0-16.91-3.41-23.1-9.61c-6.2-6.2-9.61-14.4-9.61-23.1
					c0-8.7,3.41-16.91,9.61-23.11c6.2-6.2,14.4-9.61,23.11-9.61h213.45c4.83,0,8.75,3.93,8.75,8.75v47.92
					C1038.68,237,1034.75,240.93,1029.92,240.93z M816.48,175.66c-17.95,0-32.55,14.6-32.55,32.55c0,17.95,14.6,32.55,32.55,32.55
					h213.45c4.73,0,8.59-3.85,8.59-8.59v-47.92c0-4.73-3.85-8.59-8.59-8.59H816.48z"/>
			</g>
			<g>
				<path class="st12" d="M861.47,194.88c-0.67,0.37-1.39,0.49-2.18,0.49c-2.14,0-3.79-1.49-3.79-3.88c0-2.56,1.76-4.77,4.52-4.77
					c2.17,0,3.61,1.52,3.61,3.59c0,1.86-1.04,2.96-2.21,2.96c-0.5,0-0.94-0.34-0.92-1.09h-0.04c-0.45,0.73-1.02,1.09-1.76,1.09
					c-0.72,0-1.34-0.58-1.34-1.56c0-1.54,1.23-2.94,2.95-2.94c0.53,0,1.02,0.11,1.34,0.26l-0.42,2.25
					c-0.19,0.95-0.05,1.38,0.37,1.39c0.63,0.01,1.34-0.84,1.34-2.28c0-1.8-1.08-3.09-3.02-3.09c-2.03,0-3.73,1.6-3.73,4.12
					c0,2.08,1.31,3.36,3.24,3.36c0.63,0,1.33-0.15,1.83-0.45L861.47,194.88z M860.8,189.51c-0.14-0.03-0.34-0.08-0.62-0.08
					c-1.09,0-1.99,1.03-1.99,2.23c0,0.55,0.29,0.95,0.82,0.95c0.72,0,1.38-0.92,1.52-1.69L860.8,189.51z"/>
				<path class="st12" d="M870.23,188.07l-0.81,4.26c-0.12,0.67-0.21,1.25-0.27,1.75h-0.93l0.16-1.13h-0.02
					c-0.54,0.78-1.33,1.27-2.12,1.27c-0.77,0-1.58-0.37-1.58-1.74c0-0.29,0.04-0.61,0.11-1.01l0.65-3.4h1.03l-0.63,3.35
					c-0.08,0.33-0.11,0.62-0.11,0.88c0,0.62,0.26,1.04,0.97,1.04c0.75,0,1.7-0.87,1.95-2.2l0.58-3.08H870.23z"/>
				<path class="st12" d="M870.94,193.04c0.29,0.18,0.81,0.37,1.29,0.37c0.7,0,1.14-0.45,1.14-0.98c0-0.47-0.21-0.76-0.83-1.1
					c-0.69-0.39-1.08-0.92-1.08-1.53c0-1.06,0.91-1.86,2.17-1.86c0.54,0,1.03,0.15,1.25,0.3l-0.28,0.78
					c-0.21-0.12-0.6-0.27-1.04-0.27c-0.62,0-1.07,0.39-1.07,0.91c0,0.44,0.29,0.71,0.82,1.01c0.67,0.38,1.13,0.91,1.13,1.58
					c0,1.27-1.03,1.98-2.3,1.98c-0.65,0-1.22-0.2-1.49-0.41L870.94,193.04z"/>
				<path class="st12" d="M879.87,193.74c-0.45,0.26-1.18,0.47-1.99,0.47c-1.59,0-2.29-1.08-2.29-2.41c0-1.81,1.34-3.86,3.28-3.86
					c1.14,0,1.76,0.68,1.76,1.54c0,1.58-1.78,2-4,1.96c-0.05,0.26-0.01,0.82,0.13,1.14c0.23,0.54,0.72,0.81,1.34,0.81
					c0.71,0,1.24-0.23,1.61-0.42L879.87,193.74z M878.72,188.74c-0.98,0-1.71,0.96-1.96,1.9c1.61,0.01,2.88-0.2,2.88-1.13
					C879.64,189.02,879.27,188.74,878.72,188.74z"/>
				<path class="st12" d="M881.16,194.09l0.73-3.88c0.15-0.78,0.25-1.58,0.31-2.14h0.91c-0.05,0.42-0.1,0.85-0.16,1.3h0.04
					c0.39-0.82,1.03-1.44,1.84-1.44c0.09,0,0.21,0.01,0.29,0.02l-0.2,1.02c-0.06-0.01-0.16-0.03-0.27-0.03
					c-0.89,0-1.69,1.08-1.95,2.48l-0.5,2.65H881.16z"/>
				<path class="st12" d="M885.1,194.09l0.81-4.26c0.14-0.67,0.21-1.25,0.29-1.75h0.92l-0.15,1.18h0.02
					c0.54-0.85,1.34-1.32,2.23-1.32c0.72,0,1.53,0.41,1.53,1.67c0,0.26-0.05,0.65-0.11,0.97l-0.67,3.5h-1.03l0.66-3.47
					c0.05-0.24,0.09-0.52,0.09-0.77c0-0.61-0.23-1.06-0.95-1.06c-0.73,0-1.78,0.88-2.05,2.37l-0.55,2.92H885.1z"/>
				<path class="st12" d="M895.73,194.09c0-0.36,0.06-0.93,0.14-1.55h-0.03c-0.66,1.24-1.48,1.69-2.34,1.69
					c-1.06,0-1.73-0.85-1.73-1.99c0-2.09,1.54-4.3,4.16-4.3c0.57,0,1.2,0.1,1.61,0.23l-0.61,3.13c-0.2,1.04-0.29,2.11-0.26,2.78
					H895.73z M896.4,188.84c-0.15-0.04-0.37-0.09-0.72-0.09c-1.55,0-2.82,1.62-2.83,3.29c0,0.67,0.24,1.33,1.03,1.33
					c0.85,0,1.88-1.12,2.17-2.72L896.4,188.84z"/>
				<path class="st12" d="M898.22,194.09l0.81-4.26c0.12-0.67,0.21-1.25,0.27-1.75h0.91l-0.16,1.13h0.04
					c0.56-0.83,1.32-1.27,2.11-1.27c0.92,0,1.35,0.58,1.41,1.34c0.53-0.87,1.3-1.33,2.21-1.34c0.7,0,1.45,0.45,1.45,1.58
					c0,0.29-0.04,0.69-0.1,1.02l-0.67,3.55h-1.01l0.65-3.47c0.05-0.22,0.08-0.53,0.08-0.78c0-0.63-0.23-1.04-0.91-1.04
					c-0.75,0-1.63,0.87-1.88,2.21l-0.59,3.08h-1l0.67-3.53c0.05-0.26,0.08-0.5,0.08-0.73c0-0.51-0.14-1.03-0.9-1.03
					c-0.76,0-1.69,1-1.93,2.27l-0.56,3.02H898.22z"/>
				<path class="st12" d="M912.59,193.74c-0.45,0.26-1.18,0.47-1.99,0.47c-1.59,0-2.29-1.08-2.29-2.41c0-1.81,1.34-3.86,3.28-3.86
					c1.14,0,1.76,0.68,1.76,1.54c0,1.58-1.78,2-4,1.96c-0.05,0.26-0.01,0.82,0.12,1.14c0.24,0.54,0.72,0.81,1.34,0.81
					c0.71,0,1.24-0.23,1.61-0.42L912.59,193.74z M911.45,188.74c-0.98,0-1.71,0.96-1.96,1.9c1.62,0.01,2.88-0.2,2.88-1.13
					C912.37,189.02,912,188.74,911.45,188.74z"/>
			</g>
			<g>
				<path d="M857.61,215.29l0.84-4.42l-2.05-6.23h1.41l1.03,3.45c0.27,0.95,0.36,1.37,0.44,1.79h0.03c0.27-0.44,0.63-1.04,1.14-1.83
					l2.31-3.4h1.54l-4.54,6.21l-0.84,4.44H857.61z"/>
				<path d="M869.93,210.66c0,2.36-1.67,4.81-4.24,4.81c-1.91,0-2.99-1.42-2.99-3.15c0-2.51,1.75-4.85,4.23-4.85
					C869.01,207.46,869.93,209.03,869.93,210.66z M864.07,212.27c0,1.25,0.68,2.15,1.8,2.15c1.55,0,2.72-1.99,2.72-3.78
					c0-0.88-0.41-2.13-1.79-2.13C865.16,208.51,864.05,210.51,864.07,212.27z"/>
				<path d="M878.31,207.63l-1.03,5.42c-0.16,0.85-0.27,1.6-0.35,2.23h-1.18l0.21-1.44h-0.03c-0.68,0.99-1.69,1.61-2.7,1.61
					c-0.98,0-2.01-0.47-2.01-2.21c0-0.36,0.05-0.78,0.14-1.28l0.82-4.33h1.31l-0.8,4.27c-0.09,0.43-0.14,0.79-0.14,1.12
					c0,0.79,0.33,1.33,1.23,1.33c0.95,0,2.17-1.11,2.48-2.8l0.74-3.92H878.31z"/>
				<path d="M879.16,215.29l0.93-4.93c0.19-1,0.32-2.01,0.39-2.72h1.16c-0.07,0.54-0.13,1.08-0.21,1.66h0.05
					c0.49-1.04,1.31-1.84,2.34-1.84c0.11,0,0.27,0.02,0.36,0.03l-0.25,1.3c-0.08-0.02-0.21-0.03-0.35-0.03
					c-1.14,0-2.15,1.37-2.48,3.16l-0.63,3.37H879.16z"/>
				<path d="M890.5,205.58l-0.4,2.06h1.83l-0.2,1.03h-1.84l-0.71,3.71c-0.08,0.43-0.14,0.82-0.14,1.23c0,0.46,0.22,0.73,0.73,0.73
					c0.22,0,0.44-0.01,0.62-0.05l-0.06,1.03c-0.24,0.09-0.63,0.14-1.01,0.14c-1.17,0-1.61-0.71-1.61-1.49
					c0-0.44,0.05-0.88,0.16-1.44l0.76-3.87h-1.11l0.21-1.03h1.09l0.33-1.72L890.5,205.58z"/>
				<path d="M897.47,214.84c-0.57,0.33-1.5,0.6-2.53,0.6c-2.02,0-2.91-1.38-2.91-3.07c0-2.31,1.71-4.92,4.17-4.92
					c1.45,0,2.25,0.87,2.25,1.96c0,2.01-2.26,2.54-5.09,2.5c-0.06,0.33-0.02,1.04,0.16,1.45c0.3,0.68,0.92,1.03,1.71,1.03
					c0.9,0,1.58-0.28,2.06-0.54L897.47,214.84z M896.02,208.49c-1.25,0-2.18,1.21-2.5,2.42c2.06,0.02,3.67-0.25,3.67-1.44
					C897.19,208.84,896.71,208.49,896.02,208.49z"/>
				<path d="M901.09,207.63l0.74,1.68c0.21,0.49,0.36,0.87,0.51,1.22h0.05c0.3-0.43,0.46-0.68,0.84-1.16l1.41-1.74h1.52l-3.22,3.73
					l1.8,3.92h-1.42l-0.78-1.72c-0.25-0.57-0.36-0.87-0.55-1.36h-0.03c-0.24,0.36-0.46,0.71-0.79,1.17l-1.55,1.91h-1.52l3.35-3.94
					l-1.77-3.71H901.09z"/>
				<path d="M909.67,205.58l-0.39,2.06h1.83l-0.21,1.03h-1.83l-0.71,3.71c-0.08,0.43-0.14,0.82-0.14,1.23
					c0,0.46,0.22,0.73,0.73,0.73c0.22,0,0.44-0.01,0.62-0.05l-0.06,1.03c-0.24,0.09-0.63,0.14-1.01,0.14
					c-1.17,0-1.61-0.71-1.61-1.49c0-0.44,0.05-0.88,0.16-1.44l0.76-3.87h-1.11l0.21-1.03h1.09l0.33-1.72L909.67,205.58z"/>
				<path d="M914.07,215.29l1.03-5.42c0.16-0.85,0.27-1.6,0.35-2.23h1.15l-0.21,1.44h0.05c0.71-1.06,1.67-1.61,2.69-1.61
					c1.17,0,1.72,0.74,1.79,1.71c0.68-1.11,1.66-1.69,2.81-1.71c0.89,0,1.85,0.57,1.85,2.01c0,0.36-0.05,0.87-0.12,1.3l-0.85,4.52
					h-1.28l0.82-4.41c0.06-0.29,0.11-0.68,0.11-1c0-0.8-0.3-1.33-1.15-1.33c-0.95,0-2.07,1.11-2.39,2.81l-0.75,3.92h-1.26l0.85-4.49
					c0.06-0.33,0.09-0.63,0.09-0.93c0-0.65-0.17-1.31-1.14-1.31c-0.96,0-2.15,1.26-2.45,2.89l-0.71,3.84H914.07z"/>
				<path d="M932.36,214.84c-0.57,0.33-1.5,0.6-2.53,0.6c-2.02,0-2.91-1.38-2.91-3.07c0-2.31,1.71-4.92,4.17-4.92
					c1.45,0,2.25,0.87,2.25,1.96c0,2.01-2.26,2.54-5.09,2.5c-0.06,0.33-0.01,1.04,0.16,1.45c0.3,0.68,0.92,1.03,1.71,1.03
					c0.9,0,1.58-0.28,2.06-0.54L932.36,214.84z M930.91,208.49c-1.25,0-2.18,1.21-2.5,2.42c2.05,0.02,3.66-0.25,3.66-1.44
					C932.08,208.84,931.6,208.49,930.91,208.49z"/>
				<path d="M934.07,213.96c0.36,0.22,1.03,0.47,1.64,0.47c0.89,0,1.46-0.57,1.46-1.25c0-0.6-0.27-0.96-1.06-1.41
					c-0.88-0.49-1.38-1.17-1.38-1.95c0-1.34,1.16-2.37,2.77-2.37c0.7,0,1.31,0.19,1.6,0.38l-0.37,1c-0.27-0.16-0.76-0.35-1.33-0.35
					c-0.79,0-1.36,0.49-1.36,1.15c0,0.55,0.36,0.9,1.04,1.28c0.85,0.49,1.44,1.16,1.44,2.01c0,1.61-1.31,2.51-2.92,2.51
					c-0.82,0-1.55-0.25-1.9-0.52L934.07,213.96z"/>
				<path d="M939.97,213.96c0.36,0.22,1.03,0.47,1.64,0.47c0.88,0,1.46-0.57,1.46-1.25c0-0.6-0.27-0.96-1.06-1.41
					c-0.88-0.49-1.38-1.17-1.38-1.95c0-1.34,1.15-2.37,2.77-2.37c0.7,0,1.31,0.19,1.6,0.38l-0.36,1c-0.27-0.16-0.76-0.35-1.33-0.35
					c-0.79,0-1.36,0.49-1.36,1.15c0,0.55,0.36,0.9,1.04,1.28c0.85,0.49,1.44,1.16,1.44,2.01c0,1.61-1.31,2.51-2.92,2.51
					c-0.82,0-1.55-0.25-1.9-0.52L939.97,213.96z"/>
				<path d="M950.88,215.29c0-0.46,0.08-1.18,0.17-1.98h-0.03c-0.84,1.58-1.88,2.15-2.97,2.15c-1.34,0-2.2-1.08-2.2-2.53
					c0-2.65,1.96-5.47,5.3-5.47c0.73,0,1.53,0.13,2.05,0.3l-0.78,3.99c-0.25,1.33-0.36,2.69-0.33,3.54H950.88z M951.73,208.62
					c-0.19-0.05-0.47-0.11-0.92-0.11c-1.98,0-3.59,2.07-3.61,4.19c0,0.86,0.3,1.69,1.31,1.69c1.09,0,2.39-1.42,2.77-3.46
					L951.73,208.62z"/>
				<path d="M954.13,217.02c0.46,0.29,1.22,0.51,2.02,0.51c1.28,0,2.29-0.66,2.75-2.73l0.25-1.14h-0.05
					c-0.66,1.09-1.6,1.63-2.66,1.63c-1.53,0-2.33-1.3-2.33-2.65c-0.01-2.59,1.9-5.17,4.85-5.17c0.89,0,1.85,0.25,2.45,0.54
					l-1.17,6.32c-0.32,1.61-0.74,2.73-1.55,3.41c-0.76,0.67-1.78,0.85-2.67,0.85c-0.93,0-1.8-0.22-2.29-0.54L954.13,217.02z
					 M960,208.77c-0.24-0.11-0.71-0.25-1.26-0.25c-1.91,0-3.22,1.99-3.24,3.89c0,0.84,0.3,1.83,1.47,1.83
					c1.12,0,2.26-1.42,2.54-2.92L960,208.77z"/>
				<path d="M967.86,214.84c-0.57,0.33-1.5,0.6-2.53,0.6c-2.02,0-2.91-1.38-2.91-3.07c0-2.31,1.71-4.92,4.17-4.92
					c1.45,0,2.24,0.87,2.24,1.96c0,2.01-2.26,2.54-5.09,2.5c-0.06,0.33-0.01,1.04,0.16,1.45c0.3,0.68,0.92,1.03,1.71,1.03
					c0.9,0,1.58-0.28,2.06-0.54L967.86,214.84z M966.4,208.49c-1.25,0-2.18,1.21-2.5,2.42c2.06,0.02,3.67-0.25,3.67-1.44
					C967.57,208.84,967.1,208.49,966.4,208.49z"/>
				<path d="M972.38,215.29l2.13-11.22h1.31l-0.95,4.93h0.03c0.65-0.93,1.58-1.54,2.73-1.54c0.87,0,1.9,0.54,1.9,2.06
					c0,0.41-0.05,0.9-0.13,1.3l-0.85,4.47h-1.31l0.85-4.41c0.05-0.29,0.09-0.63,0.09-1.06c0-0.71-0.33-1.26-1.18-1.26
					c-1.01,0-2.29,1.18-2.61,2.91l-0.71,3.83H972.38z"/>
				<path d="M986.34,214.84c-0.57,0.33-1.5,0.6-2.53,0.6c-2.02,0-2.91-1.38-2.91-3.07c0-2.31,1.71-4.92,4.17-4.92
					c1.46,0,2.25,0.87,2.25,1.96c0,2.01-2.26,2.54-5.09,2.5c-0.06,0.33-0.02,1.04,0.16,1.45c0.3,0.68,0.92,1.03,1.71,1.03
					c0.9,0,1.58-0.28,2.05-0.54L986.34,214.84z M984.88,208.49c-1.25,0-2.18,1.21-2.5,2.42c2.06,0.02,3.67-0.25,3.67-1.44
					C986.05,208.84,985.58,208.49,984.88,208.49z"/>
				<path d="M987.98,215.29l0.93-4.93c0.19-1,0.31-2.01,0.39-2.72h1.15c-0.06,0.54-0.13,1.08-0.21,1.66h0.05
					c0.49-1.04,1.31-1.84,2.34-1.84c0.11,0,0.27,0.02,0.36,0.03l-0.25,1.3c-0.08-0.02-0.21-0.03-0.35-0.03
					c-1.14,0-2.15,1.37-2.48,3.16l-0.63,3.37H987.98z"/>
				<path d="M998.43,214.84c-0.57,0.33-1.5,0.6-2.53,0.6c-2.02,0-2.91-1.38-2.91-3.07c0-2.31,1.71-4.92,4.17-4.92
					c1.45,0,2.25,0.87,2.25,1.96c0,2.01-2.26,2.54-5.09,2.5c-0.06,0.33-0.02,1.04,0.16,1.45c0.3,0.68,0.92,1.03,1.71,1.03
					c0.9,0,1.58-0.28,2.05-0.54L998.43,214.84z M996.98,208.49c-1.25,0-2.18,1.21-2.5,2.42c2.06,0.02,3.67-0.25,3.67-1.44
					C998.15,208.84,997.67,208.49,996.98,208.49z"/>
			</g>
		</g>
		<g>
			<path class="st0" d="M792.39,208.21c0,13.91,11.27,25.18,25.18,25.18c13.91,0,25.18-11.27,25.18-25.18
				c0-13.91-11.27-25.18-25.18-25.18C803.67,183.03,792.39,194.31,792.39,208.21z"/>
			<g>
				<path class="st10" d="M830.75,195.34c-4.13,1.71-21.83,9.04-26.72,11.04c-3.28,1.28-1.36,2.48-1.36,2.48s2.8,0.96,5.2,1.68
					c2.4,0.72,3.68-0.08,3.68-0.08l11.28-7.6c4-2.72,3.04-0.48,2.08,0.48c-2.08,2.08-5.52,5.36-8.4,8
					c-1.28,1.12-0.64,2.08-0.08,2.56c2.08,1.76,7.76,5.36,8.08,5.6c1.69,1.2,5.02,2.92,5.52-0.72l2-12.56
					c0.64-4.24,1.28-8.16,1.36-9.28C833.63,194.21,830.75,195.34,830.75,195.34z"/>
			</g>
		</g>
		<g>
			<path class="st0" d="M848.94,282.72c0,10.9,8.84,19.74,19.74,19.74c10.91,0,19.75-8.84,19.75-19.74
				c0-10.91-8.84-19.75-19.75-19.75C857.78,262.97,848.94,271.81,848.94,282.72z"/>
			<g>
				<path class="st10" d="M879.02,272.62c-3.24,1.34-17.12,7.09-20.95,8.66c-2.57,1-1.07,1.94-1.07,1.94s2.2,0.75,4.08,1.32
					c1.88,0.56,2.88-0.06,2.88-0.06l8.84-5.96c3.14-2.13,2.38-0.38,1.63,0.38c-1.63,1.63-4.33,4.2-6.59,6.27
					c-1,0.88-0.5,1.63-0.06,2.01c1.63,1.38,6.08,4.2,6.33,4.39c1.33,0.94,3.93,2.29,4.33-0.56l1.57-9.85c0.5-3.32,1-6.4,1.07-7.27
					C881.28,271.74,879.02,272.62,879.02,272.62z"/>
			</g>
		</g>
	</g>
	<g>
		<g>
			
				<linearGradient id="SVGID_00000112594266385586320340000011064637628775909047_" gradientUnits="userSpaceOnUse" x1="471.8176" y1="-26.8707" x2="494.8264" y2="-0.9206">
				<stop  offset="0" style="stop-color:#006EAC"/>
				<stop  offset="1" style="stop-color:#41B4F2"/>
			</linearGradient>
			<polygon style="fill:url(#SVGID_00000112594266385586320340000011064637628775909047_);" points="506.9,2.86 490.29,-29.31 
				450.85,-27.24 			"/>
		</g>
		<g>
			
				<linearGradient id="SVGID_00000036936172531293440270000017553167184586529209_" gradientUnits="userSpaceOnUse" x1="546.1553" y1="-129.7219" x2="462.9511" y2="-31.2951">
				<stop  offset="0" style="stop-color:#006EAC"/>
				<stop  offset="1" style="stop-color:#41B4F2"/>
			</linearGradient>
			<path style="fill:url(#SVGID_00000036936172531293440270000017553167184586529209_);" d="M450.85-46.62v19.38h92.71
				c10.71,0,19.38-8.67,19.38-19.38v-73.33c0-10.71-8.67-19.38-19.38-19.38h-73.33c-10.7,0-19.38,8.67-19.38,19.38V-46.62z"/>
			<g>
				<path class="st10" d="M541.79-117.39c-10.94,4.53-57.87,23.97-70.84,29.27c-8.69,3.39-3.6,6.57-3.6,6.57s7.42,2.54,13.79,4.46
					c6.36,1.91,9.75-0.22,9.75-0.22l29.9-20.15c10.61-7.21,8.06-1.27,5.52,1.28c-5.52,5.51-14.64,14.21-22.27,21.21
					c-3.39,2.97-1.7,5.52-0.21,6.79c5.51,4.67,20.57,14.21,21.42,14.85c4.48,3.18,13.29,7.74,14.63-1.91l5.3-33.29
					c1.7-11.24,3.4-21.63,3.61-24.6C549.43-120.36,541.79-117.39,541.79-117.39z"/>
			</g>
		</g>
	</g>
	<g>
		<g>
			
				<linearGradient id="SVGID_00000023277097910513592230000015541066489910903463_" gradientUnits="userSpaceOnUse" x1="-2299.1868" y1="3241.2637" x2="-2266.6282" y2="3241.2637" gradientTransform="matrix(0 1 1 0 -2252.4854 2252.4846)">
				<stop  offset="0" style="stop-color:#006EAC"/>
				<stop  offset="1" style="stop-color:#41B4F2"/>
			</linearGradient>
			<polygon style="fill:url(#SVGID_00000023277097910513592230000015541066489910903463_);" points="1027.12,-46.7 1048.66,-14.14 
				962.13,-14.14 928.9,-40.05 			"/>
		</g>
		<g>
			
				<linearGradient id="SVGID_00000096742169693212814280000009710766693829377174_" gradientUnits="userSpaceOnUse" x1="928.8984" y1="-86.9663" x2="1022.7256" y2="-86.9663">
				<stop  offset="0" style="stop-color:#006EAC"/>
				<stop  offset="1" style="stop-color:#41B4F2"/>
			</linearGradient>
			<polygon style="fill:url(#SVGID_00000096742169693212814280000009710766693829377174_);" points="1022.73,-40.06 928.9,-40.05 
				928.9,-133.88 1022.73,-133.88 			"/>
			<g>
				<path class="st11" d="M1005.02-114.79c-9.16,3.79-48.43,20.06-59.29,24.5c-7.28,2.84-3.02,5.5-3.02,5.5s6.21,2.13,11.54,3.73
					c5.33,1.6,8.17-0.18,8.17-0.18l25.03-16.86c8.88-6.04,6.75-1.07,4.62,1.07c-4.62,4.62-12.25,11.89-18.64,17.75
					c-2.84,2.48-1.42,4.62-0.18,5.68c4.62,3.9,17.22,11.89,17.93,12.43c3.75,2.65,11.13,6.48,12.25-1.6l4.44-27.87
					c1.42-9.41,2.84-18.11,3.02-20.59C1011.42-117.27,1005.02-114.79,1005.02-114.79z"/>
			</g>
			<g>
				<path class="st10" d="M1005.02-115.52c-9.16,3.79-48.43,20.06-59.29,24.5c-7.28,2.84-3.02,5.5-3.02,5.5s6.21,2.13,11.54,3.73
					c5.33,1.6,8.17-0.18,8.17-0.18l25.03-16.86c8.88-6.04,6.75-1.07,4.62,1.06c-4.62,4.61-12.25,11.89-18.64,17.75
					c-2.84,2.48-1.42,4.62-0.18,5.68c4.62,3.9,17.22,11.89,17.93,12.42c3.75,2.66,11.13,6.48,12.25-1.6l4.44-27.87
					c1.42-9.41,2.84-18.11,3.02-20.59C1011.42-118,1005.02-115.52,1005.02-115.52z"/>
			</g>
		</g>
		<g>
			
				<linearGradient id="SVGID_00000075137924072365974750000000955569467293530533_" gradientUnits="userSpaceOnUse" x1="1022.7256" y1="-74.0117" x2="1048.6582" y2="-74.0117">
				<stop  offset="0" style="stop-color:#006EAC"/>
				<stop  offset="1" style="stop-color:#41B4F2"/>
			</linearGradient>
			<polygon style="fill:url(#SVGID_00000075137924072365974750000000955569467293530533_);" points="1022.73,-40.06 1048.66,-14.14 
				1048.65,-102.61 1022.73,-133.88 			"/>
		</g>
	</g>
	<g>
		<g>
			
				<linearGradient id="SVGID_00000086661429447539368000000004439184114195059878_" gradientUnits="userSpaceOnUse" x1="366.4878" y1="247.8071" x2="578.4902" y2="247.8071">
				<stop  offset="0" style="stop-color:#006EAC"/>
				<stop  offset="1" style="stop-color:#41B4F2"/>
			</linearGradient>
			<path style="fill:url(#SVGID_00000086661429447539368000000004439184114195059878_);" d="M366.49,273.48h186.34
				c14.17,0,25.66-11.49,25.66-25.67c0-14.18-11.49-25.67-25.66-25.67H366.49V273.48z"/>
		</g>
		<g>
			
				<linearGradient id="SVGID_00000137841368296743732010000009025454810812294332_" gradientUnits="userSpaceOnUse" x1="293.3027" y1="247.6758" x2="381.8135" y2="247.6758">
				<stop  offset="0" style="stop-color:#006EAC"/>
				<stop  offset="1" style="stop-color:#41B4F2"/>
			</linearGradient>
			
				<ellipse style="fill:url(#SVGID_00000137841368296743732010000009025454810812294332_);" cx="337.56" cy="247.68" rx="44.26" ry="44.25"/>
			<g>
				<path class="st10" d="M361.59,224.19c-7.53,3.12-39.82,16.49-48.74,20.14c-5.98,2.34-2.48,4.52-2.48,4.52s5.11,1.75,9.48,3.06
					c4.38,1.31,6.72-0.14,6.72-0.14l20.57-13.86c7.3-4.96,5.55-0.88,3.79,0.87c-3.79,3.8-10.07,9.78-15.32,14.6
					c-2.34,2.04-1.17,3.79-0.14,4.67c3.79,3.21,14.16,9.77,14.73,10.22c3.08,2.18,9.15,5.32,10.07-1.31l3.65-22.91
					c1.17-7.73,2.33-14.88,2.48-16.93C366.85,222.14,361.59,224.19,361.59,224.19z"/>
			</g>
		</g>
		<g>
			<g>
				<path class="st10" d="M414.75,257.45c-1.69,0.94-3.5,1.25-5.47,1.25c-5.38,0-9.54-3.75-9.54-9.75c0-6.44,4.44-12.01,11.38-12.01
					c5.47,0,9.1,3.81,9.1,9.04c0,4.69-2.63,7.44-5.57,7.44c-1.25,0-2.38-0.84-2.31-2.75h-0.09c-1.13,1.85-2.57,2.75-4.44,2.75
					c-1.81,0-3.38-1.47-3.38-3.94c0-3.87,3.09-7.41,7.41-7.41c1.34,0,2.57,0.28,3.38,0.66l-1.06,5.66c-0.47,2.38-0.12,3.47,0.94,3.5
					c1.6,0.03,3.38-2.09,3.38-5.73c0-4.53-2.72-7.78-7.6-7.78c-5.09,0-9.38,4.03-9.38,10.38c0,5.22,3.28,8.45,8.16,8.45
					c1.59,0,3.35-0.37,4.6-1.13L414.75,257.45z M413.06,243.93c-0.34-0.09-0.85-0.22-1.57-0.22c-2.75,0-5,2.6-5,5.63
					c0,1.38,0.72,2.38,2.06,2.38c1.82,0,3.47-2.31,3.82-4.25L413.06,243.93z"/>
				<path class="st10" d="M436.79,240.31l-2.03,10.73c-0.31,1.68-0.53,3.16-0.69,4.41h-2.35l0.41-2.85h-0.06
					c-1.34,1.97-3.35,3.19-5.35,3.19c-1.94,0-3.97-0.94-3.97-4.38c0-0.72,0.09-1.53,0.28-2.53l1.63-8.57h2.59l-1.59,8.44
					c-0.19,0.85-0.28,1.57-0.28,2.22c0,1.57,0.66,2.63,2.44,2.63c1.88,0,4.28-2.19,4.91-5.54l1.47-7.75H436.79z"/>
				<path class="st10" d="M438.61,252.82c0.72,0.44,2.03,0.94,3.25,0.94c1.75,0,2.88-1.13,2.88-2.47c0-1.19-0.53-1.91-2.1-2.78
					c-1.75-0.97-2.72-2.31-2.72-3.85c0-2.66,2.29-4.69,5.47-4.69c1.37,0,2.6,0.38,3.16,0.75l-0.72,1.97
					c-0.53-0.31-1.5-0.69-2.63-0.69c-1.56,0-2.69,0.97-2.69,2.28c0,1.09,0.72,1.78,2.07,2.53c1.69,0.97,2.85,2.28,2.85,3.97
					c0,3.19-2.6,4.97-5.79,4.97c-1.63,0-3.06-0.5-3.75-1.04L438.61,252.82z"/>
				<path class="st10" d="M461.06,254.57c-1.13,0.66-2.97,1.19-5,1.19c-4,0-5.75-2.72-5.75-6.07c0-4.56,3.38-9.72,8.26-9.72
					c2.88,0,4.44,1.72,4.44,3.88c0,3.97-4.47,5.03-10.07,4.93c-0.12,0.66-0.03,2.07,0.31,2.88c0.59,1.34,1.81,2.03,3.38,2.03
					c1.78,0,3.12-0.56,4.06-1.06L461.06,254.57z M458.18,242c-2.47,0-4.31,2.41-4.94,4.78c4.06,0.04,7.25-0.5,7.25-2.84
					C460.49,242.68,459.56,242,458.18,242z"/>
				<path class="st10" d="M464.31,255.44l1.84-9.76c0.38-1.97,0.63-3.97,0.78-5.38h2.29c-0.13,1.06-0.25,2.12-0.41,3.28h0.09
					c0.97-2.06,2.59-3.63,4.63-3.63c0.22,0,0.53,0.03,0.72,0.06l-0.5,2.56c-0.15-0.03-0.4-0.06-0.69-0.06
					c-2.25,0-4.25,2.72-4.91,6.25l-1.25,6.66H464.31z"/>
				<path class="st10" d="M474.25,255.44l2.03-10.73c0.35-1.69,0.53-3.16,0.72-4.41h2.31l-0.38,2.97h0.06
					c1.34-2.12,3.38-3.32,5.59-3.32c1.81,0,3.85,1.03,3.85,4.22c0,0.66-0.12,1.63-0.28,2.44l-1.69,8.82h-2.6l1.66-8.73
					c0.13-0.59,0.22-1.31,0.22-1.94c0-1.53-0.6-2.66-2.38-2.66c-1.85,0-4.47,2.22-5.16,5.97l-1.38,7.35H474.25z"/>
				<path class="st10" d="M500.99,255.44c0-0.91,0.16-2.34,0.34-3.91h-0.06c-1.66,3.12-3.72,4.25-5.88,4.25
					c-2.66,0-4.35-2.13-4.35-5c0-5.25,3.88-10.82,10.48-10.82c1.44,0,3.03,0.25,4.06,0.6l-1.53,7.88c-0.5,2.63-0.72,5.32-0.66,7
					H500.99z M502.67,242.25c-0.37-0.1-0.94-0.22-1.81-0.22c-3.91,0-7.1,4.09-7.13,8.29c0,1.69,0.59,3.34,2.6,3.34
					c2.16,0,4.72-2.81,5.47-6.84L502.67,242.25z"/>
				<path class="st10" d="M507.27,255.44l2.03-10.73c0.31-1.69,0.53-3.16,0.69-4.41h2.28l-0.41,2.85h0.09
					c1.41-2.1,3.31-3.19,5.32-3.19c2.31,0,3.41,1.47,3.53,3.38c1.35-2.19,3.28-3.34,5.57-3.38c1.75,0,3.66,1.12,3.66,3.97
					c0,0.72-0.09,1.72-0.25,2.57l-1.69,8.94h-2.53l1.63-8.73c0.12-0.56,0.22-1.34,0.22-1.97c0-1.59-0.6-2.63-2.28-2.63
					c-1.88,0-4.1,2.19-4.72,5.57l-1.47,7.76h-2.5l1.69-8.88c0.13-0.66,0.19-1.25,0.19-1.85c0-1.28-0.34-2.6-2.25-2.6
					s-4.25,2.5-4.84,5.73l-1.41,7.6H507.27z"/>
				<path class="st10" d="M543.45,254.57c-1.13,0.66-2.97,1.19-5.01,1.19c-4,0-5.75-2.72-5.75-6.07c0-4.56,3.38-9.72,8.25-9.72
					c2.88,0,4.44,1.72,4.44,3.88c0,3.97-4.47,5.03-10.07,4.93c-0.12,0.66-0.03,2.07,0.31,2.88c0.6,1.34,1.81,2.03,3.38,2.03
					c1.78,0,3.13-0.56,4.07-1.06L543.45,254.57z M540.57,242c-2.47,0-4.32,2.41-4.94,4.78c4.06,0.04,7.25-0.5,7.25-2.84
					C542.88,242.68,541.94,242,540.57,242z"/>
			</g>
		</g>
	</g>
	<g>
		<g>
			<g>
				<g>
					
						<linearGradient id="SVGID_00000041994386398211573290000016470560244368931257_" gradientUnits="userSpaceOnUse" x1="862.5266" y1="-622.8033" x2="984.5179" y2="-622.8033" gradientTransform="matrix(0.7488 -0.5736 0.6742 0.8192 417.1587 1289.592)">
						<stop  offset="0" style="stop-color:#006EAC"/>
						<stop  offset="1" style="stop-color:#41B4F2"/>
					</linearGradient>
					<path style="fill:url(#SVGID_00000041994386398211573290000016470560244368931257_);" d="M746.47,282.42
						c-5.33,9.02-11.74,16.32-20.76,16.32h-62.49c-9.02,0-17.22-7.31-18.33-16.32l-7.67-62.49c-1.11-9.02,5.3-16.33,13.53-22.78
						h62.49c9.81,6.45,18.01,13.76,25.56,22.78L746.47,282.42z"/>
					<path d="M725.71,298.91h-62.49c-9.08,0-17.38-7.39-18.5-16.47l-7.67-62.49c-1.22-9.92,6.62-17.46,13.59-22.93
						c0.03-0.02,0.07-0.04,0.1-0.04h62.49c0.03,0,0.07,0.01,0.09,0.03c9.88,6.5,18.01,13.75,25.59,22.81
						c0.02,0.03,0.03,0.06,0.04,0.09l7.67,62.49c0,0.04,0,0.07-0.02,0.11C742.1,290.14,735.64,298.91,725.71,298.91z M650.81,197.32
						c-10.21,8.02-14.35,14.99-13.42,22.59l7.67,62.49c1.09,8.92,9.24,16.18,18.16,16.18h62.49c7.6,0,13.95-4.99,20.58-16.19
						L738.64,220c-7.54-9.01-15.63-16.22-25.45-22.68H650.81z"/>
				</g>
			</g>
			<g>
				<g>
					
						<linearGradient id="SVGID_00000072967677075936695140000017451847902025227906_" gradientUnits="userSpaceOnUse" x1="490.354" y1="-426.3278" x2="598.0547" y2="-426.3278" gradientTransform="matrix(0.9163 -0.2239 0.2877 1.0212 320.9621 798.7194)">
						<stop  offset="0" style="stop-color:#006EAC"/>
						<stop  offset="1" style="stop-color:#41B4F2"/>
					</linearGradient>
					<path style="fill:url(#SVGID_00000072967677075936695140000017451847902025227906_);" d="M748.38,272.79
						c1.11,9.01-5.3,16.21-14.32,16.21h-62.49c-9.02,0-17.22-7.2-18.33-16.21l-7.67-62.48c-1.11-9.02,5.3-16.31,14.32-16.31h62.49
						c9.02,0,17.22,7.3,18.33,16.31L748.38,272.79z"/>
					<path d="M734.06,289h-62.49c-9.43,0-17.7-7.2-18.83-16.4l-7.67-62.6c-0.56-4.56,0.71-8.85,3.57-12.08
						c2.8-3.17,6.8-4.91,11.25-4.91h62.49c9.24,0,17.68,7.57,18.83,16.88l7.67,62.6c0.54,4.42-0.66,8.56-3.38,11.64
						C742.71,287.27,738.65,289,734.06,289z M659.89,194c-4.16,0-7.89,1.62-10.5,4.58c-2.67,3.02-3.85,7.03-3.32,11.3l7.67,62.6
						c1.07,8.7,8.9,15.52,17.83,15.52h62.49c4.3,0,8.09-1.61,10.68-4.54c2.53-2.87,3.65-6.72,3.14-10.86l-7.67-62.6
						c-1.08-8.82-9.08-16-17.83-16H659.89z"/>
				</g>
			</g>
			<g>
				<path class="st22" d="M657.2,272.79l-7.67-62.49c-0.5-4.11,0.62-7.96,3.17-10.84c2.52-2.85,6.14-4.42,10.2-4.42h-3.01
					c-4.06,0-7.69,1.57-10.21,4.42c-2.55,2.88-3.67,6.73-3.17,10.84l7.67,62.49c1.05,8.54,8.85,15.49,17.39,15.49h3.01
					C666.05,288.28,658.25,281.33,657.2,272.79z"/>
				<polygon class="st23" points="647.62,235.74 641.84,249.97 639.91,233.94 645.68,219.71 				"/>
			</g>
		</g>
		<g>
			<path class="st10" d="M724.75,213c-8.61,3.79-45.53,20.03-55.74,24.45c-6.87,2.83-2.24,5.49-2.24,5.49s6.5,2.13,12.04,3.72
				c5.54,1.6,8.13-0.18,8.13-0.18l22.62-16.83c8.01-6.02,6.59-1.06,4.76,1.06c-3.96,4.61-10.56,11.87-16.11,17.72
				c-2.49,2.48-0.77,4.61,0.62,5.67c5.15,3.9,18.86,11.87,19.64,12.4c4.12,2.65,12.01,6.46,12-1.59l0.52-27.82
				c0.1-9.39,0.29-18.07,0.12-20.55C730.78,210.52,724.75,213,724.75,213z"/>
		</g>
	</g>
	<path class="st24" d="M154.32,129.45c10.67-7.08,17.72-19.19,17.72-32.93c0-21.79-17.73-39.52-39.52-39.52
		c-21.79,0-39.52,17.73-39.52,39.52c0,13.74,7.05,25.85,17.72,32.93c-24.14,8.91-41.43,32.08-41.43,59.28V194h126.46v-5.27
		C195.76,161.53,178.47,138.36,154.32,129.45z M103.55,96.52c0-15.98,13-28.98,28.98-28.98c15.98,0,28.98,13,28.98,28.98
		s-13,28.98-28.98,28.98C116.55,125.5,103.55,112.5,103.55,96.52z M80.1,183.46c2.65-26.59,25.15-47.42,52.43-47.42
		c27.28,0,49.78,20.84,52.43,47.42H80.1z"/>
</g>
<g id="Layer_1">
</g>
</svg>
