<?xml version="1.0" encoding="utf-8"?>
<!-- Generator: Adobe Illustrator 22.0.1, SVG Export Plug-In . SVG Version: 6.00 Build 0)  -->
<svg version="1.1" width="60" height="60" id="design" xmlns="http://www.w3.org/2000/svg" xmlns:xlink="http://www.w3.org/1999/xlink" x="0px" y="0px"
	 viewBox="0 0 782 785.5" style="enable-background:new 0 0 782 785.5;" xml:space="preserve">
<style type="text/css">
	.st0{fill:#000000;}
	.st1{fill:#000;}
</style>
<g>
	<path class="st1" d="M203.4,254c-20-1-40.3,0-60.4-0.4c-5.9-0.1-10.3-1.2-13-3.4c-7.7-6-6.2-20.6,3.1-24.7c2.4-1,6.3-1.6,11.9-1.6
		c25-0.2,50-0.4,75-0.5c15.5-0.1,18.6,24.1,21.3,35.9c0.2,0.8,0.9,1.4,1.7,1.4c105.3,0,210.3,0,315-0.2c7.6,0,12.9,0.9,15.9,2.6
		c8.4,4.9,8.5,13,6.7,22.4c-10.3,54.1-20.9,108.1-31.7,162.1c-3.6,18.4-5,25.9-24.9,25.9c-85.4,0-170.8,0-256.3,0
		c-11.2,0-14.9-9-17.3-19.2c-15.5-66.4-30.7-132.7-45.6-199C204.7,254.6,204.1,254.1,203.4,254 M253.9,293.8c-0.4,0-0.8,0.4-0.7,0.8
		l9.3,39.9c0.1,0.3,0.4,0.5,0.7,0.5L331,335c0.4,0,0.7-0.3,0.7-0.7l-0.5-40c0-0.4-0.3-0.7-0.7-0.7L253.9,293.8 M365.3,294
		c-0.5,0-0.9,0.4-0.9,0.9l0.7,39.1c0,0.5,0.4,0.9,0.9,0.9l64,0c0.5,0,0.9-0.4,0.9-0.9l0.3-39.5c0-0.5-0.4-1-1-1L365.3,294
		 M531.2,335c0.4,0,0.6-0.2,0.7-0.6l8.5-39.9c0.1-0.5-0.3-0.9-0.7-0.9l-74.1,0.4c-0.4,0-0.8,0.3-0.8,0.8l0.1,39.7
		c0,0.4,0.3,0.8,0.8,0.8L531.2,335 M268.9,360.9c-0.6,0-1.1,0.6-0.9,1.2l5.5,21.7c0.1,0.4,0.5,0.7,0.9,0.7l57.2-0.3
		c0.5,0,1-0.4,0.9-1l-0.3-21.9c0-0.5-0.4-1-1-1L268.9,360.9 M430.4,361.9c0-0.7-0.6-1.3-1.3-1.3l-62.2,0.2c-0.7,0-1.3,0.6-1.3,1.3
		l0.1,21c0,0.7,0.6,1.3,1.3,1.3l62.2-0.2c0.7,0,1.3-0.6,1.3-1.3L430.4,361.9 M521.5,384.1c0.5,0,1-0.4,1.1-0.8l5.2-21.3
		c0.2-0.7-0.4-1.4-1.1-1.4l-61.5-0.1c-0.6,0-1.1,0.5-1.1,1.1l0.3,21.4c0,0.6,0.5,1.1,1.1,1.1L521.5,384.1 M280.8,409.4
		c-1,0-1.8,1-1.5,2l7.2,28.1c0.2,0.7,0.8,1.2,1.6,1.2l43.7,0c0.9,0,1.6-0.7,1.6-1.6l-0.1-28.4c0-0.9-0.7-1.6-1.6-1.6L280.8,409.4
		 M429.8,410.7c0-0.7-0.6-1.2-1.2-1.2l-60.3,0.1c-0.7,0-1.2,0.6-1.2,1.2l0.1,28.7c0,0.7,0.6,1.2,1.2,1.2l60.3-0.1
		c0.7,0,1.2-0.6,1.2-1.2L429.8,410.7 M509.7,440.7c0.8,0,1.4-0.5,1.6-1.3l5.8-27.9c0.2-1-0.6-1.9-1.6-1.9l-50,0
		c-0.9,0-1.6,0.7-1.6,1.6l0,27.9c0,0.9,0.7,1.6,1.6,1.6H509.7L509.7,440.7z"/>
	<path class="st1" d="M348.6,542.6c5.6,26.4-11.6,52.3-38.3,58c-26.8,5.7-53-11-58.6-37.4c-5.6-26.4,11.6-52.3,38.3-58
		C316.8,499.5,343,516.3,348.6,542.6 M317.9,556.6c2-9.5-4.2-18.8-13.8-20.8c-9.6-2-19.1,4-21.1,13.5c-2,9.5,4.2,18.8,13.8,20.8
		C306.5,572.1,315.9,566,317.9,556.6L317.9,556.6z"/>
	<path class="st1" d="M525.6,545.7c3.9,26.6-14.8,51.4-41.7,55.4C457,605,432,586.6,428.1,560c-3.9-26.6,14.8-51.4,41.7-55.4
		C496.8,500.7,521.7,519.1,525.6,545.7 M493,560.1c4-8.7,0.1-19-8.8-23c-8.8-4-19.2-0.3-23.1,8.4c-4,8.7-0.1,19,8.8,23
		C478.7,572.5,489,568.8,493,560.1L493,560.1z"/>
</g>
</svg>
